<?xml version="1.0" standalone="no"?>
<!DOCTYPE svg PUBLIC "-//W3C//DTD SVG 20010904//EN"
 "http://www.w3.org/TR/2001/REC-SVG-20010904/DTD/svg10.dtd">
<svg class="funcion-image" version="1.0" xmlns="http://www.w3.org/2000/svg"
 width="130.000000pt" height="130.000000pt" viewBox="0 0 142.000000 142.000000"
 preserveAspectRatio="xMidYMid meet">

<g transform="translate(0.000000,142.000000) scale(0.100000,-0.100000)"
fill="currentColor" stroke="none">
<path d="M357 1070 c-191 -193 -347 -354 -347 -358 0 -4 156 -163 348 -355
l347 -347 353 353 352 352 -353 353 -353 353 -347 -351z m681 -33 l322 -322
-328 -328 -327 -327 -325 325 -325 325 325 325 c179 179 327 325 330 325 3 0
150 -145 328 -323z"/>
<path d="M638 986 c-121 -33 -208 -160 -194 -286 9 -74 38 -132 92 -178 148
-131 379 -66 439 124 44 139 -36 292 -176 337 -60 20 -96 20 -161 3z m172 -47
c60 -27 88 -54 116 -114 41 -86 24 -195 -39 -264 -35 -38 -115 -71 -172 -71
-57 0 -137 33 -172 71 -61 67 -79 177 -42 259 27 60 54 88 114 116 63 30 134
31 195 3z"/>
<path d="M697 844 c-4 -4 -7 -38 -7 -75 l0 -68 63 -36 c73 -40 77 -41 77 -17
0 10 -20 28 -50 44 l-49 27 -3 62 c-3 57 -14 80 -31 63z"/>
</g>
</svg>
